<svg xmlns="http://www.w3.org/2000/svg" width="366.907" height="68.265"><path fill="gray" d="M55.339 55.339h12.409v12.408H55.339z"/><path fill="#008c4f" d="M0 67.749h50.812V50.811l16.937-.004V0H0z"/><path d="M17.038 21.862c.394-.112.45.194.967.102.541-.096.761-.286.761-.286s-.411.66-.845.699c-.341.031-.522-.128-.818-.134-.348-.006-.623.082-.623.082s.162-.349.558-.463zM50.69 21.936c-.394-.113-.45.194-.967.102-.541-.096-.76-.285-.76-.285s.41.659.845.699c.341.031.522-.128.818-.134.348-.007.623.082.623.082s-.162-.35-.559-.464zM28.03 46.569c1.246 1.005 3.366 1.809 5.946 1.809 2.592 0 4.988-.81 6.231-1.822-1.344-.383-3.655-.736-6.254-.799a19.6 19.6 0 00-5.923.812z" fill="#fff"/><path d="M23.776 20.849l-.038 20.481c-.814-.41-1.972-.64-2.46-.773-.036-.185-.545-1.39-.507-1.534.036-.146.435-.985.108-2.299-.295-1.184-2.286-2.841-3.732-3.55l-.13.068c.32-.545.494-1.254.75-1.118.506.267 1.368 1.37 1.606 1.29.237-.079.083-.506.401-.427l.546.95c.498.343.873.827 1.007.898.13.071.405.21.74.225.334.015.455-.33.455-.33s-.396.009-.65-.157c-.218-.144-.363-.549-.063-.537.451.019.843.405 1.377-.026.283-.231.275-.429.275-.429s-.414.136-.717.122c-.303-.012-.706-.29-.542-.523.177-.252.779-.02 1.114-.354.379-.377.239-.702.239-.702s-.071.194-.606.287c-.535.093-.601-.068-.843-.223-.215-.134-.46-.417-.46-.417s.057-.292.245-.464c.189-.173.627-.129.627-.129s-.32-.35-.553-.361c-.232-.009-.508-.054-.993.391-.231.211-.405.41-.522.56l-1.017-1.055s-.894-.572-.72-.834c.445-.666.849-1.417 1.015-1.998.105-.368-.35-1.526-.828-2.159.449-.489 1.47-1.609 1.594-1.854.104-.208.304-.742 1.287-1.883l.655-.6c.354-.563.868-.999.941-1.15.069-.145.212-.454.212-.824 0-.37-.386-.486-.386-.486s.029.438-.141.723c-.147.248-.586.425-.586.095 0-.497.405-.946-.097-1.513-.266-.3-.482-.282-.482-.282s.168.449.168.783c0 .333-.285.79-.55.621-.286-.182-.06-.854-.443-1.208-.433-.399-.781-.23-.781-.23s.216.069.344.652c.128.584-.046.666-.204.94-.14.242-.439.524-.439.524s-.324-.05-.522-.248c-.199-.199-.171-.684-.171-.684s-.37.37-.37.626c0 .255-.036.562.476 1.073.245.245.471.425.641.548l-2.431 2.731c-.131.022-.547.079-.811.013-.318-.079-.896-.491-.341-.491.554 0 .829-.617.8-.737-.056-.236-.782-.401-1.1-.481-.316-.078-.24-1.453-.124-1.569.118-.118 1.56.48 1.605.371.062-.145.376-.81.05-.992-.078-.043-.162-.072-.086-.238.08-.171.064-.368.018-.414-.161-.16-.931-.557-1.168-.636-.239-.08-.692-.385-1.362-.658l.272-.004s.116-.209.147-.289c.059-.149.121-.275-.005-.4-.125-.126-.359-.216-.622-.216-.367 0-.426.571-.627.924a11.96 11.96 0 00-.577.151s-.445-.361-.767-.511c-.465-.213-1.106.209-1.152.682-.06.622.789.427.512 1.384-.069.24-.939 1.577-.711 1.577.903 0 1.333 1 1.295 1.563-.091 1.308-1.753 3.175-1.299 2.963.433-.201 2.013-.041 1.696.515-.316.555-1.968 3.66-1.573 3.263.286-.287 1.128-.341.987.123-.764 2.493-1.194 3.522-2.065 5.186-1.188.159-2.285-1.493-1.221-3.088.138-.517 1.477-2.633 1.557-3.899.078-1.269-.595-2.994-.595-2.994.872-.633.223-3.808-1.929-4.821-.04.123.519.493.198 1.211-.164.478-.625 1.279-.395 2.227.261 1.523 1.359 1.161 1.526 1.583 1.63 4.044-1.869 6.059-1.79 8.594.08 2.538 2.854 2.617 2.854 2.617.265.354.263.357.263.357.386.511.81 1.093.848 1.253.073.293-.555 1.666-.467 2.174.062.356 1.605 2.066 1.968 2.577.301.563-.393 1.819.694 2.793.065-.545.333-1.266.384-1.328.817-.051 1.23.522 1.773 1.943.675-.685.591-1.744.252-2.296.586.061.905.23 1.896.826.134-1.26-1.215-1.939-1.215-1.939s.882-.049 1.315-.018c-.038-.146-.472-.474-.836-.656-.362-.184-2.141 0-2.141 0l-1.088-2.009s1.088-1.277 1.197-1.789c.11-.512-.544-1.714-.145-1.897.399-.182 1.593.186 2.142.766.575.609-.586 2.312.361 2.445 1.561.219 2.578 3.031 2.578 3.031s-.074.619-.11.767c-.036.146.726 1.276.726 1.276l.726-1.459c.131-.265 1.073-.352 1.804-.525l-.006 3.75s1.079-.504 2.831-1.011V20.849h-2.786zm-8.543-.84a.431.431 0 01-.437-.425c0-.236.195-.427.437-.427s.438.191.438.427a.433.433 0 01-.438.425zM57.983 25.448c.167-.422 1.266-.06 1.526-1.584.23-.947-.23-1.748-.395-2.225-.321-.718.237-1.088.197-1.211-2.151 1.014-2.8 4.188-1.929 4.822 0 0-.673 1.724-.594 2.993.08 1.267 1.419 3.382 1.557 3.9 1.063 1.595-.033 3.247-1.221 3.088-.872-1.664-1.301-2.692-2.065-5.186-.142-.463.701-.41.986-.124.396.397-1.256-2.707-1.572-3.262-.317-.555 1.263-.715 1.696-.514.454.211-1.208-1.656-1.299-2.964-.04-.562.392-1.563 1.294-1.563.228 0-.642-1.337-.712-1.577-.277-.957.572-.762.513-1.384-.046-.473-.687-.895-1.153-.682-.321.149-.767.511-.767.511s-.091-.03-.577-.151c-.201-.354-.259-.924-.626-.924-.263 0-.497.091-.622.216-.126.125-.064.251-.005.401.032.079.146.289.146.289l.272.004c-.67.273-1.123.578-1.362.658-.237.079-1.008.476-1.168.636-.046.045-.062.242.018.413.076.167-.009.196-.086.239-.326.182-.012.846.049.991.046.109 1.487-.488 1.605-.371.115.117.192 1.492-.125 1.57-.317.08-1.044.245-1.1.48-.029.12.246.737.8.737.556 0-.023.412-.341.491-.264.066-.68.009-.811-.013l-2.431-2.732c.17-.124.396-.304.641-.549.512-.511.476-.817.476-1.072 0-.257-.37-.626-.37-.626s.027.485-.171.684c-.199.198-.523.248-.523.248s-.299-.283-.438-.524c-.158-.274-.332-.356-.204-.94.127-.583.344-.652.344-.652s-.349-.169-.781.229c-.384.353-.158 1.026-.444 1.208-.265.168-.55-.287-.55-.621s.168-.783.168-.783-.217-.017-.483.283c-.501.567-.096 1.016-.096 1.513 0 .33-.439.153-.586-.095-.171-.286-.141-.724-.141-.724s-.386.117-.386.486c0 .37.143.68.212.824.072.151.587.587.94 1.15l.655.6c.983 1.141 1.182 1.674 1.287 1.882.124.246 1.145 1.366 1.594 1.855-.478.633-.934 1.79-.828 2.159.166.581.571 1.332 1.015 1.998.174.262-.719.834-.719.834l-1.018 1.056a4.626 4.626 0 00-.523-.561c-.485-.444-.761-.4-.993-.391-.233.01-.553.361-.553.361s.438-.044.627.129c.188.172.245.464.245.464s-.244.283-.459.417c-.242.155-.309.316-.843.223-.535-.092-.606-.287-.606-.287s-.14.324.239.702c.335.334.937.102 1.113.354.164.233-.239.51-.542.522-.303.015-.717-.121-.717-.121s-.007.197.276.429c.533.431.925.045 1.376.026.3-.013.156.393-.063.537-.254.166-.651.157-.651.157s.121.344.455.33c.336-.014.61-.153.741-.225.134-.072.509-.556 1.007-.899l.546-.95c.318-.08.165.348.402.427.238.08 1.101-1.023 1.606-1.291.255-.135.43.574.75 1.118l-.13-.068c-1.446.708-3.438 2.366-3.732 3.549-.326 1.314.072 2.153.108 2.3.038.145-.471 1.35-.507 1.534-.489.134-1.646.364-2.46.773l-.037-20.481h-2.784V45.69c1.752.507 2.831 1.01 2.831 1.01l-.007-3.749c.731.174 1.673.262 1.804.525l.726 1.459s.762-1.131.726-1.275c-.035-.148-.109-.768-.109-.768s1.017-2.813 2.578-3.031c.948-.133-.213-1.836.362-2.444.548-.58 1.742-.947 2.142-.766.399.182-.254 1.386-.145 1.896.108.512 1.196 1.789 1.196 1.789l-1.088 2.009s-1.779-.184-2.142 0c-.363.183-.797.511-.835.656.433-.031 1.314.018 1.314.018s-1.349.68-1.215 1.939c.992-.595 1.311-.765 1.897-.826-.339.552-.423 1.611.251 2.295.543-1.42.956-1.992 1.773-1.942.051.063.318.784.384 1.328 1.086-.974.393-2.229.694-2.794.362-.51 1.906-2.22 1.968-2.575.088-.509-.541-1.882-.467-2.175.038-.16.462-.742.848-1.253 0 0-.002-.004.263-.358 0 0 2.774-.079 2.854-2.617.083-2.535-3.416-4.549-1.786-8.593zm-5.487-5.365a.432.432 0 01-.438-.425c0-.237.196-.428.438-.428s.437.191.437.428a.431.431 0 01-.437.425z" fill="#fff"/><path d="M45.042 8.444l-1.659 1.659 1.633 1.634-4.866 4.865.005-1.866h-3.731v5.998h-5.085v-5.998h-3.703v1.71l-4.728-4.268 2.046-2.045-1.661-1.661-5.327 5.327 1.66 1.661 2.123-2.122 5.886 5.425-.015 2.085v24.485c1.764-.433 3.999-.794 6.428-.737 2.363.059 4.458.405 6.101.792V18.92l6.024-6.025 2.536 2.535.184-1.66.173-1.303-4.024-4.023zM33.929 42.891s-2.535-1.046-2.881-4.148c-.422-3.766.975-3.773 1.748-5.792.792-2.068-.998-4.063-.998-4.063s2.507.298 3.317 2.804c.625 1.929-.602 2.41-.679 4.096-.054 1.235 1.495 1.819 1.624 3.349.202 2.348-2.131 3.754-2.131 3.754z" fill="#fff"/><g fill="gray"><path d="M93.074 61.772c0 4.453-.192 4.214 4.118 4.74v1.245H84.31v-1.245c4.31-.526 4.119-.287 4.119-4.74V35.185h-4.31c-4.167 0-5.125 2.633-6.705 5.794h-1.197l1.292-7.327h26.483l1.293 7.327h-1.197c-1.58-3.161-2.538-5.794-6.705-5.794h-4.31v26.587zM115.347 53.749c0 6.704 1.82 11.828 8.955 11.828 6.561 0 10.009-4.405 10.009-12.066V40.198c0-1.006-.191-1.82-.287-2.586-.24-1.724-1.868-2.395-4.119-2.635v-1.245h11.302v1.245c-2.299.24-3.879.911-4.119 2.635-.096.766-.287 1.58-.287 2.586v13.504c0 10.295-6.561 14.126-12.739 14.126-10.201 0-13.361-5.172-13.361-13.839v-14.27c0-4.454.191-4.214-4.119-4.742v-1.245h12.883v1.245c-4.311.528-4.119.289-4.119 4.742v14.03zM190.385 59.167l-1.438 5.986c0 1.053-.861 1.244-2.202 1.676-1.819.622-5.172 1.436-9.338 1.436-9.817 0-18.677-4.691-18.677-17.525 0-7.375 6.273-17.144 19.155-17.144 4.646 0 6.849.862 9.195 1.629 1.342.431 1.867 1.101 1.867 1.867v6.177h-1.244c-.144-3.83-2.586-7.997-10.201-7.997-8.956 0-13.265 6.464-13.313 15.084-.048 9.528 4.31 16.232 14.079 16.232 6.37 0 9.339-3.639 10.871-7.422h1.246zM201.495 32.59v29.114c0 4.311-.239 4.167 3.832 4.742v1.244h-11.974v-1.244c4.072-.575 3.833-.432 3.833-4.742V37.283c0-1.294-.577-2.107-1.82-2.107h-2.013v-1.245c2.873-.096 5.939-.671 8.046-1.437l.096.096zM223.239 68.264c-.719-.861-1.102-2.346-1.102-3.782l-3.737 2.49c-1.1.718-2.44 1.292-3.926 1.292-3.161 0-5.795-2.777-5.795-6.273 0-4.549 2.683-5.984 8.286-8.188l5.172-2.012c0-4.166-1.102-6.943-4.072-6.943-2.921 0-3.927 2.634-5.075 4.358-.144.239-.336.239-.622.191l-1.63-.383c-.286-.097-.431-.288-.383-.624l.719-2.537c.288-.91.814-1.293 1.39-1.484 2.202-.862 3.83-1.197 5.937-1.197 5.604 0 8.047 2.49 8.047 7.71v10.63c0 2.443.144 4.502 3.353 3.256l.287 1.342-6.849 2.154zm-1.102-14.652c-4.216 1.58-9.147 2.729-9.147 7.613 0 2.252 1.484 4.07 3.687 4.07 2.491 0 5.461-1.629 5.461-7.949v-3.734zM252.307 68.264c-.719-.813-1.102-2.298-1.102-3.687l-4.214 2.442c-2.012 1.148-3.065 1.244-4.454 1.244-5.508 0-6.992-3.975-6.992-9.338V48.44c0-2.203-1.484-2.012-3.832-2.012v-1.244c2.586-.096 5.795-.672 8.047-2.012l.096.096v15.229c0 3.591.575 6.943 4.789 6.943 4.454 0 6.561-2.395 6.561-9.482V48.44c0-2.203-1.485-2.012-3.831-2.012v-1.244c2.634-.096 5.842-.672 8.045-2.012l.096.096v18.244c0 2.443.144 4.502 3.352 3.256l.288 1.342-6.849 2.154zM262.891 61.608h1.243c-.046 3.354 2.443 4.98 5.222 4.98 2.777 0 4.405-2.106 4.405-4.118 0-3.112-2.489-4.214-5.363-6.272-3.879-2.826-5.459-3.592-5.459-6.752 0-4.023 3.735-6.273 7.662-6.273 1.532 0 3.448.096 5.65.814v4.787h-1.245c-.144-1.627-1.58-3.926-4.311-3.926-2.01 0-3.688 1.197-3.688 3.064 0 2.299 2.443 3.544 5.939 6.034 4.501 3.16 5.076 4.933 5.076 7.135 0 4.98-4.502 7.183-8.668 7.183-2.634 0-4.693-.43-6.465-1.292v-5.364zM296.653 46.141l-1.963.958h-5.315v12.594c0 1.868.096 5.698 3.255 5.698 1.294 0 2.539-.096 3.688-.574l.335 1.245-5.556 2.202c-3.352 0-6.033-1.005-6.033-7.565v-13.6h-3.832v-2.203h3.832v-5.028a24.4 24.4 0 013.017-2.681h1.294v7.709h7.278v1.245zM307.189 32.59v14.796c2.06-2.393 5.507-4.213 9.673-4.213 5.843 0 6.992 3.496 6.992 8.477v10.055c0 4.311-.24 4.167 3.832 4.742v1.244h-11.974v-1.244c4.071-.575 3.832-.432 3.832-4.742v-8.811c0-3.018-.192-7.23-5.268-7.23-6.13 0-7.088 5.268-7.088 10.199v5.842c0 4.311-.239 4.167 3.831 4.742v1.244h-11.973v-1.244c4.071-.575 3.832-.432 3.832-4.742V37.283c0-1.294-.575-2.107-1.82-2.107h-2.012v-1.245c2.874-.096 5.94-.671 8.047-1.437l.096.096zM345.596 68.264c-.719-.861-1.103-2.346-1.103-3.782l-3.734 2.49c-1.103.718-2.442 1.292-3.927 1.292-3.161 0-5.795-2.777-5.795-6.273 0-4.549 2.683-5.984 8.285-8.188l5.171-2.012c0-4.166-1.102-6.943-4.07-6.943-2.92 0-3.926 2.634-5.076 4.358-.143.239-.335.239-.622.191l-1.628-.383c-.287-.097-.432-.288-.383-.624l.718-2.537c.288-.91.813-1.293 1.389-1.484 2.203-.862 3.831-1.197 5.938-1.197 5.603 0 8.046 2.49 8.046 7.71v10.63c0 2.443.144 4.502 3.352 3.256l.288 1.342-6.849 2.154zm-1.102-14.652c-4.214 1.58-9.146 2.729-9.146 7.613 0 2.252 1.485 4.07 3.688 4.07 2.49 0 5.459-1.629 5.459-7.949v-3.734zM363.076 32.59v29.114c0 4.311-.24 4.167 3.831 4.742v1.244h-11.973v-1.244c4.071-.575 3.831-.432 3.831-4.742V37.283c0-1.294-.574-2.107-1.819-2.107h-2.012v-1.245c2.873-.096 5.938-.671 8.045-1.437l.097.096z"/></g></svg>